<svg width="31" height="31" viewBox="0 0 31 31" fill="none" xmlns="http://www.w3.org/2000/svg">
<path fill-rule="evenodd" clip-rule="evenodd" d="M5.77499 11.2126C5.41139 11.2126 5.11674 11.5073 5.11674 11.8709V19.4188C5.11674 19.7825 5.41139 20.0771 5.77499 20.0771C6.1386 20.0771 6.43325 19.7825 6.43325 19.4188V11.8709C6.43325 11.5135 6.1386 11.2126 5.77499 11.2126ZM2.58403 12.7235C2.22043 12.7235 1.92578 13.0181 1.92578 13.3817V17.908C1.92578 18.2716 2.22043 18.5663 2.58403 18.5663C2.96018 18.5663 3.24229 18.0961 3.24229 17.7575V13.3817C3.24856 13.0244 2.94764 12.7235 2.58403 12.7235ZM28.0804 12.7235C27.7168 12.7235 27.4221 13.0181 27.4221 13.3817V17.908C27.4221 18.2716 27.7168 18.5663 28.0804 18.5663C28.444 18.5663 28.7386 18.2716 28.7386 17.908V13.3817C28.7386 13.0244 28.444 12.7235 28.0804 12.7235ZM24.8894 11.2126C24.5258 11.2126 24.2311 11.5073 24.2311 11.8709V19.4188C24.2311 19.7825 24.5258 20.0771 24.8894 20.0771C25.253 20.0771 25.5477 19.7825 25.5477 19.4188V11.8709C25.5539 11.5135 25.253 11.2126 24.8894 11.2126ZM21.7047 7.13773C21.3411 7.13773 21.0465 7.43238 21.0465 7.79599V23.5C21.0465 23.8636 21.3411 24.1583 21.7047 24.1583C22.0683 24.1583 22.363 23.8636 22.363 23.5V7.79599C22.363 7.43238 22.0683 7.13773 21.7047 7.13773ZM18.52 9.40087C18.1564 9.40087 17.8618 9.69552 17.8618 10.0591V21.2306C17.8618 21.5942 18.1564 21.8889 18.52 21.8889C18.8836 21.8889 19.1783 21.5942 19.1783 21.2306V10.0591C19.1783 9.70178 18.8836 9.40087 18.52 9.40087ZM15.3353 5.77734C14.9717 5.77734 14.6771 6.07199 14.6771 6.4356V24.8541C14.6771 25.2177 14.9717 25.5124 15.3353 25.5124C15.6989 25.5124 15.9936 25.2177 15.9936 24.8541V6.4356C15.9936 6.07199 15.6989 5.77734 15.3353 5.77734ZM12.1444 9.40087C11.7808 9.40087 11.4861 9.69552 11.4861 10.0591V21.2306C11.4861 21.5942 11.7808 21.8889 12.1444 21.8889C12.508 21.8889 12.8026 21.5942 12.8026 21.2306V10.0654C12.8026 9.70178 12.508 9.40087 12.1444 9.40087ZM8.95968 7.13773C8.59608 7.13773 8.30143 7.43238 8.30143 7.79599V23.5C8.30143 23.8636 8.59608 24.1583 8.95968 24.1583C9.32329 24.1583 9.61794 23.8636 9.61794 23.5V7.79599C9.61794 7.43238 9.32329 7.13773 8.95968 7.13773Z" fill="white"/>
</svg>
